<?xml version="1.0" encoding="UTF-8" standalone="no"?>
<svg
   width="23.5"
   height="23.5"
   viewBox="0 0 23.5 23.5"
   fill="none"
   version="1.1"
   id="svg97"
   xmlns="http://www.w3.org/2000/svg"
   xmlns:svg="http://www.w3.org/2000/svg">
  <g
     clip-path="url(#clip0_0_1646)"
     id="g59"
     transform="translate(-175.25,-743.25)">
    <mask
       id="mask0_0_1646"
       maskUnits="userSpaceOnUse"
       x="0"
       y="88"
       width="375"
       height="98">
      <rect
         y="88"
         width="375"
         height="98"
         fill="#ffffff"
         id="rect20"
         x="0" />
    </mask>
    <path
       fill-rule="evenodd"
       clip-rule="evenodd"
       d="m 192,743.25 c 3.728,0 6.75,3.022 6.75,6.75 v 10 c 0,3.728 -3.022,6.75 -6.75,6.75 h -10 c -3.728,0 -6.75,-3.022 -6.75,-6.75 v -10 c 0,-3.728 3.022,-6.75 6.75,-6.75 z m 0,1.5 h -10 c -2.899,0 -5.25,2.351 -5.25,5.25 v 10 c 0,2.899 2.351,5.25 5.25,5.25 h 10 c 2.899,0 5.25,-2.351 5.25,-5.25 v -10 c 0,-2.899 -2.351,-5.25 -5.25,-5.25 z m -4.257,4.148 c -0.05,-0.366 -0.363,-0.648 -0.743,-0.648 l -0.102,0.007 -0.097,0.02 c -0.318,0.087 -0.551,0.378 -0.551,0.723 v 5.249 l -5.25,10e-4 -0.102,0.007 c -0.366,0.05 -0.648,0.363 -0.648,0.743 l 0.007,0.102 c 0.05,0.366 0.363,0.648 0.743,0.648 l 5.25,-10e-4 V 761 l 0.007,0.102 c 0.05,0.366 0.363,0.648 0.743,0.648 l 0.102,-0.007 c 0.366,-0.05 0.648,-0.363 0.648,-0.743 v -5.25 H 193 l 0.102,-0.007 c 0.366,-0.05 0.648,-0.363 0.648,-0.743 l -0.007,-0.102 c -0.05,-0.366 -0.363,-0.648 -0.743,-0.648 h -5.25 V 749 Z"
       fill="#262626"
       id="path44" />
  </g>
  <defs
     id="defs97">
    <clipPath
       id="clip0_0_1646">
      <rect
         width="375"
         height="812"
         fill="#ffffff"
         id="rect90"
         x="0"
         y="0" />
    </clipPath>
  </defs>
</svg>
