<?xml version="1.0" encoding="UTF-8" standalone="no"?>
<svg
   width="23.5"
   height="22"
   viewBox="0 0 23.5 22"
   fill="none"
   version="1.1"
   id="svg97"
   xmlns="http://www.w3.org/2000/svg"
   xmlns:svg="http://www.w3.org/2000/svg">
  <g
     clip-path="url(#clip0_0_1646)"
     id="g59"
     transform="translate(-12,-54)">
    <mask
       id="mask0_0_1646"
       maskUnits="userSpaceOnUse"
       x="0"
       y="88"
       width="375"
       height="98">
      <rect
         y="88"
         width="375"
         height="98"
         fill="#ffffff"
         id="rect20"
         x="0" />
    </mask>
    <path
       fill-rule="evenodd"
       clip-rule="evenodd"
       d="M 28.5739,55.3724 C 28.0213,54.5168 27.0723,54 26.0537,54 h -4.6088 c -1.0192,0 -1.9686,0.5174 -2.5211,1.3739 L 18.1704,56.542 C 17.9862,56.8275 17.6698,57 17.33,57 H 16.5 C 14.0147,57 12,59.0147 12,61.5 v 10 c 0,2.4853 2.0147,4.5 4.5,4.5 H 31 c 2.4853,0 4.5,-2.0147 4.5,-4.5 v -10 C 35.5,59.0147 33.4853,57 31,57 h -0.8304 c -0.3395,0 -0.6559,-0.1723 -0.8401,-0.4575 z M 21.4449,55.5 h 4.6088 c 0.5093,0 0.9838,0.2584 1.2601,0.6862 l 0.7557,1.1701 C 28.53,58.0693 29.3208,58.5 30.1696,58.5 H 31 c 1.6569,0 3,1.3431 3,3 v 10 c 0,1.6569 -1.3431,3 -3,3 H 16.5 c -1.6569,0 -3,-1.3431 -3,-3 v -10 c 0,-1.6569 1.3431,-3 3,-3 h 0.83 c 0.8493,0 1.6406,-0.4312 2.1009,-1.1449 L 20.1844,56.187 C 20.4606,55.7587 20.9353,55.5 21.4449,55.5 Z m 2.3051,5 c 3.1756,0 5.75,2.5744 5.75,5.75 C 29.5,69.4256 26.9256,72 23.75,72 20.5744,72 18,69.4256 18,66.25 18,63.0744 20.5744,60.5 23.75,60.5 Z m -4.25,5.75 c 0,-2.3472 1.9028,-4.25 4.25,-4.25 2.3472,0 4.25,1.9028 4.25,4.25 0,2.3472 -1.9028,4.25 -4.25,4.25 -2.3472,0 -4.25,-1.9028 -4.25,-4.25 z"
       fill="#262626"
       id="path48" />
  </g>
  <defs
     id="defs97">
    <clipPath
       id="clip0_0_1646">
      <rect
         width="375"
         height="812"
         fill="#ffffff"
         id="rect90"
         x="0"
         y="0" />
    </clipPath>
  </defs>
</svg>
