<?xml version="1.0" encoding="UTF-8" standalone="no"?>
<svg
   width="22"
   height="22.079163"
   viewBox="0 0 22 22.079163"
   fill="none"
   version="1.1"
   id="svg97"
   xmlns="http://www.w3.org/2000/svg"
   xmlns:svg="http://www.w3.org/2000/svg">
  <g
     clip-path="url(#clip0_0_1646)"
     id="g59"
     transform="translate(-55,-628.49999)">
    <g
       clip-path="url(#clip3_0_1646)"
       id="g19">
      <path
         fill-rule="evenodd"
         clip-rule="evenodd"
         d="m 77,639.5 c 0,-6.075 -4.9249,-11 -11,-11 -6.0751,0 -11,4.925 -11,11 0,6.075 4.9249,11 11,11 1.326,0 3.1475,-0.484 5.4645,-1.451 l 3.7468,1.461 0.111,0.037 c 0.4844,0.126 0.9976,-0.127 1.184,-0.605 0.0745,-0.191 0.0885,-0.4 0.0401,-0.599 l -1.0448,-4.297 0.1711,-0.409 C 76.5576,642.481 77,640.769 77,639.5 Z m -2.7286,4.6 -0.3449,0.817 0.9355,3.847 -3.4166,-1.333 -0.9331,0.387 C 68.5445,648.612 67.0245,649 66,649 c -5.2467,0 -9.5,-4.253 -9.5,-9.5 0,-5.247 4.2533,-9.5 9.5,-9.5 5.2467,0 9.5,4.253 9.5,9.5 0,1.046 -0.403,2.595 -1.2286,4.6 z"
         fill="#262626"
         id="path14" />
    </g>
    <mask
       id="mask0_0_1646"
       maskUnits="userSpaceOnUse"
       x="0"
       y="88"
       width="375"
       height="98">
      <rect
         y="88"
         width="375"
         height="98"
         fill="#ffffff"
         id="rect20"
         x="0" />
    </mask>
  </g>
  <defs
     id="defs97">
    <clipPath
       id="clip0_0_1646">
      <rect
         width="375"
         height="812"
         fill="#ffffff"
         id="rect90"
         x="0"
         y="0" />
    </clipPath>
    <clipPath
       id="clip3_0_1646">
      <rect
         width="375"
         height="147"
         fill="#ffffff"
         transform="translate(0,615)"
         id="rect93"
         x="0"
         y="0" />
    </clipPath>
  </defs>
</svg>
