<?xml version="1.0" encoding="UTF-8" standalone="no"?>
<svg
   width="17"
   height="17"
   viewBox="0 0 17 17"
   fill="none"
   version="1.1"
   id="svg32"
   sodipodi:docname="Instagram Authorization-3.svg"
   inkscape:export-filename="..\..\StudioProjects\instagram_clone_app\StudioProjects\instagram_clone_app\StudioProjects\instagram_clone_app\StudioProjects\instagram_clone_app\StudioProjects\instagram_clone_app\assets\svgs\facebook_logo.svg"
   inkscape:export-xdpi="96"
   inkscape:export-ydpi="96"
   xmlns:inkscape="http://www.inkscape.org/namespaces/inkscape"
   xmlns:sodipodi="http://sodipodi.sourceforge.net/DTD/sodipodi-0.dtd"
   xmlns="http://www.w3.org/2000/svg"
   xmlns:svg="http://www.w3.org/2000/svg">
  <sodipodi:namedview
     id="namedview32"
     pagecolor="#ffffff"
     bordercolor="#000000"
     borderopacity="0.25"
     inkscape:showpageshadow="2"
     inkscape:pageopacity="0.0"
     inkscape:pagecheckerboard="0"
     inkscape:deskcolor="#d1d1d1"
     showguides="true"
     inkscape:document-units="px"
     showgrid="false">
    <inkscape:grid
       id="grid32"
       units="px"
       originx="-103"
       originy="-500"
       spacingx="1"
       spacingy="1"
       empcolor="#0099e5"
       empopacity="0.30196078"
       color="#0099e5"
       opacity="0.14901961"
       empspacing="5"
       enabled="true"
       visible="false" />
    <inkscape:page
       x="0"
       y="0"
       width="17"
       height="17"
       id="page2"
       margin="0"
       bleed="0" />
  </sodipodi:namedview>
  <g
     clip-path="url(#clip0_0_1846)"
     id="g23"
     transform="translate(-103,-500)">
    <g
       clip-path="url(#clip1_0_1846)"
       id="g7">
      <path
         d="m 118.5,500 c 0.828,0 1.5,0.672 1.5,1.5 v 14 c 0,0.828 -0.672,1.5 -1.5,1.5 h -4.309 l 0.002,-6.053 h 2.712 v -2.782 h -2.712 v -1.211 l 0.001,-0.104 c 0.019,-0.707 0.241,-1.194 1.182,-1.246 l 0.174,-0.005 H 117 V 503 h -2.113 l -0.183,0.003 c -1.924,0.072 -3.249,1.279 -3.335,3.447 l -0.004,0.228 v 1.487 H 109 v 2.782 h 2.365 L 111.363,517 H 104.5 c -0.828,0 -1.5,-0.672 -1.5,-1.5 v -14 c 0,-0.828 0.672,-1.5 1.5,-1.5 z"
         fill="#3797ef"
         id="path6"
         inkscape:export-filename="..\..\StudioProjects\instagram_clone_app\assets\svgs\facebook_svg.png"
         inkscape:export-xdpi="96"
         inkscape:export-ydpi="96" />
    </g>
  </g>
  <defs
     id="defs32">
    <clipPath
       id="clip0_0_1846">
      <rect
         width="375"
         height="812"
         fill="#ffffff"
         id="rect25"
         x="0"
         y="0" />
    </clipPath>
    <clipPath
       id="clip1_0_1846">
      <rect
         width="169"
         height="18"
         fill="#ffffff"
         transform="translate(103,500)"
         id="rect26"
         x="0"
         y="0" />
    </clipPath>
  </defs>
</svg>
