<?xml version="1.0" encoding="UTF-8" standalone="no"?>
<svg
   width="22"
   height="23.381775"
   viewBox="0 0 22 23.381775"
   fill="none"
   version="1.1"
   id="svg97"
   xmlns="http://www.w3.org/2000/svg"
   xmlns:svg="http://www.w3.org/2000/svg">
  <g
     clip-path="url(#clip0_0_1646)"
     id="g59"
     transform="translate(-26,-743.61823)">
    <mask
       id="mask0_0_1646"
       maskUnits="userSpaceOnUse"
       x="0"
       y="88"
       width="375"
       height="98">
      <rect
         y="88"
         width="375"
         height="98"
         fill="#ffffff"
         id="rect20"
         x="0" />
    </mask>
    <path
       fill-rule="evenodd"
       clip-rule="evenodd"
       d="m 37.7,743.904 10,9.802 c 0.1919,0.188 0.3,0.445 0.3,0.714 v 12.08 c 0,0.276 -0.2239,0.5 -0.5,0.5 h -7 C 40.2239,767 40,766.776 40,766.5 V 761 c 0,-1.598 -1.2489,-2.904 -2.8237,-2.995 L 37,758 c -1.5977,0 -2.9037,1.249 -2.9949,2.824 L 34,761 v 5.5 c 0,0.276 -0.2239,0.5 -0.5,0.5 h -7 c -0.2455,0 -0.4496,-0.177 -0.492,-0.41 L 26,766.5 v -12.08 c 0,-0.269 0.1081,-0.526 0.3,-0.714 l 10,-9.802 c 0.3889,-0.381 1.0111,-0.381 1.4,0 z"
       fill="#262626"
       id="path46" />
  </g>
  <defs
     id="defs97">
    <clipPath
       id="clip0_0_1646">
      <rect
         width="375"
         height="812"
         fill="#ffffff"
         id="rect90"
         x="0"
         y="0" />
    </clipPath>
  </defs>
</svg>
