<?xml version="1.0" encoding="UTF-8" standalone="no"?>
<svg
   width="181.99985"
   height="48.999756"
   viewBox="0 0 181.99985 48.999756"
   fill="none"
   version="1.1"
   id="svg32"
   xmlns="http://www.w3.org/2000/svg"
   xmlns:svg="http://www.w3.org/2000/svg">
  <g
     clip-path="url(#clip0_0_1846)"
     id="g23"
     transform="translate(-95.999976,-167.99995)">
    <path
       fill-rule="evenodd"
       clip-rule="evenodd"
       d="m 276.184,194.469 c 0.205,-0.89 0.453,-1.419 0.995,-1.419 0.698,0 0.931,0.834 0.774,1.915 -0.653,4.489 -2.593,6.195 -4.965,6.195 -1.111,0 -4.299,-0.511 -5.402,-5.085 -0.813,-3.376 -0.612,-9.55 -0.523,-11.437 0.002,-0.051 -0.07,-0.314 -0.227,0.019 l -0.034,0.073 c -0.449,0.96 -1.581,3.379 -2.267,6.049 -1.079,4.197 -1.172,7.118 -1.119,7.59 0.109,0.97 -1.111,1.122 -1.694,1.122 -0.917,0 -2.043,-0.072 -2.955,-1.595 -0.319,-0.533 -0.735,-2.217 -1.046,-5.065 -0.408,-3.722 -0.471,-6.53 -0.496,-7.613 l -0.002,-0.123 c -0.012,-0.485 -0.317,-0.409 -0.588,0.049 l -0.041,0.069 c -0.499,0.842 -1.493,2.518 -2.557,6.661 -0.504,1.961 -0.578,4.444 -0.636,6.41 -0.018,0.579 -0.033,1.114 -0.059,1.577 -0.042,0.774 -0.35,1.074 -0.745,1.149 -0.571,0.109 -2.112,0.36 -3.624,-0.17 -0.342,-0.12 -0.811,-0.368 -0.892,-0.566 -0.132,-0.323 -0.216,-1.348 -0.269,-2.602 -1.272,2.848 -2.841,3.488 -4.493,3.488 -1.587,0 -4.357,-1.04 -4.927,-4.408 0,0 -0.341,0.671 -0.94,1.447 -2.659,3.442 -7.895,4.321 -10.604,0.262 -0.132,-0.198 -0.253,-0.412 -0.369,-0.633 -0.959,1.985 -2.749,3.321 -4.621,3.321 -1.599,0 -4.295,-1.025 -5.491,-4.21 -1.723,-4.587 0.113,-11.439 0.276,-12.045 l 0.006,-0.023 c 0.095,-0.356 -0.053,-0.455 -0.567,-0.424 -1.606,0.1 -3.112,0.088 -3.112,0.088 -0.887,2.646 -2.619,6.046 -4.236,8.578 -1.483,2.323 -3.094,4.308 -4.524,5.878 0.018,1.181 0.039,2.317 0.058,3.355 v 0 0 c 0.014,0.759 0.027,1.466 0.037,2.1 0.061,3.748 -0.769,7.542 -2.038,9.306 -1.441,2.003 -3.789,3.434 -6.527,3.228 -2.582,-0.193 -5.991,-1.671 -5.701,-5.648 0.227,-3.114 3.314,-5.789 7.379,-9.313 l 0.017,-0.014 c 0.924,-0.802 2.43,-2.108 2.43,-2.108 l -0.077,-2.138 c -0.095,0.132 -0.203,0.279 -0.327,0.44 -2.64,3.447 -7.895,4.321 -10.604,0.262 -0.18,-0.269 -0.344,-0.553 -0.495,-0.85 -1.286,2.738 -3.121,3.532 -4.898,3.532 -1.587,0 -4.358,-1.137 -4.743,-4.391 0,0 -0.124,0.382 -0.94,1.447 -2.64,3.447 -7.895,4.321 -10.604,0.262 -0.566,-0.848 -1.004,-1.849 -1.299,-3.002 -1.031,2.827 -3.387,5.7 -5.738,5.7 -3.515,0 -5.539,-2.931 -6.014,-8.112 -2.656,5.998 -6.471,8.324 -11.234,8.173 -1.222,-0.039 -3.139,-0.379 -4.031,-0.754 -1.036,-0.437 -2.035,-0.935 -1.761,-1.879 0.282,-0.969 0.776,-1.752 1.64,-2.368 0.332,-0.237 0.887,-0.169 1.25,0.057 0.293,0.182 0.513,0.34 0.723,0.49 0.274,0.197 0.531,0.381 0.912,0.592 2.306,1.28 3.602,-0.037 3.946,-1.314 0.45,-1.671 -0.228,-3.432 -2.293,-5.286 -0.557,-0.5 -1.115,-0.98 -1.648,-1.44 v 0 0 c -0.318,-0.273 -0.627,-0.539 -0.923,-0.798 -1.137,1.812 -2.72,4.327 -4.35,6.892 -2.615,4.116 -5.054,5.742 -6.784,5.742 -2.262,0 -3.845,-1.525 -3.515,-9.752 0.065,-1.624 0.147,-3.4 0.217,-4.927 v -0.001 -0.002 c 0.063,-1.364 0.116,-2.529 0.141,-3.212 0.011,-0.327 -0.232,-0.315 -0.444,-0.115 -1.218,1.144 -3.806,4.367 -5.791,10.973 -1.085,3.611 -1.251,4.973 -1.37,5.947 v 0 0 0 0.001 c -0.021,0.17 -0.04,0.328 -0.062,0.484 -0.126,0.878 -2.555,0.583 -2.999,0.497 -0.476,-0.093 -0.765,-0.319 -1.015,-0.614 -0.25,-0.296 -0.452,-0.794 -0.577,-1.405 C 114.033,198.417 114,197.02 114,195.823 l 0.107,-15.757 c 0,-0.511 0.291,-0.768 0.875,-0.768 1.225,0 2.603,0.542 3.119,0.807 0.304,0.156 0.438,0.384 0.438,0.62 l -0.066,10.071 c 0,0 0.758,-1.923 1.144,-2.979 3.062,-8.375 6.302,-8.519 7.425,-8.519 0.75,0 2.046,0.695 2.653,1.048 0.999,0.581 1.595,1.224 1.55,2.351 -0.033,0.819 -0.068,1.632 -0.102,2.425 v 0.006 0.004 0.001 10e-4 0.001 c -0.107,2.498 -0.206,4.791 -0.206,6.451 v 0.1 c 0,2.511 0,5.153 0.93,5.153 1.112,0 2.564,-2.38 4.46,-5.488 0.113,-0.185 0.227,-0.372 0.343,-0.562 0.744,-1.216 1.622,-2.785 2.261,-3.951 -0.086,-0.094 -0.17,-0.187 -0.247,-0.279 -1.057,-1.254 -1.345,-2.461 -0.805,-4.088 0.696,-2.1 3.032,-4.067 5.864,-3.451 1.714,0.373 1.684,2.062 0.985,3.538 -0.985,2.084 -2.097,3.12 -2.097,3.12 1.919,1.342 3.634,2.568 4.503,3.215 2.358,1.756 3.667,3.831 3.026,6.593 0,0 2.984,-2.256 3.832,-6.431 -0.002,-0.235 -0.003,-0.477 -0.003,-0.728 0,-2.36 0.068,-10.003 0.068,-10.003 -0.611,-0.017 -1.346,-0.034 -2.093,-0.051 -1.134,-0.027 -2.297,-0.054 -3.101,-0.083 -1.158,-0.042 -0.254,-3.449 0.584,-3.449 0.451,0 1.446,0.042 2.441,0.083 0.995,0.042 1.99,0.083 2.441,0.083 0,0 0.085,-4.357 0.249,-5.845 0.109,-0.98 0.666,-1.215 1.894,-0.975 0.889,0.173 1.639,0.334 2.477,0.669 l 0.029,0.011 c 0.348,0.139 0.916,0.364 0.878,0.792 -0.047,0.527 -0.248,5.518 -0.248,5.518 0,0 2.239,0.157 3.043,0.174 0.956,0.019 3.369,0.141 3.71,0.279 0.753,0.307 0.05,2.783 -0.68,2.819 -1.055,0.051 -1.865,0.052 -2.648,0.053 -0.296,0 -0.588,0.001 -0.888,0.004 -0.424,0.005 -2.614,0.04 -2.614,0.04 -0.058,0.724 -0.404,8.243 -0.404,13.524 0,3.965 0.966,5.825 1.98,5.825 1.733,0 3.852,-3.197 4.332,-5.972 -0.008,-0.977 0.055,-2.022 0.2,-3.138 0.502,-3.863 1.475,-5.608 2.678,-7.181 1.845,-2.414 4.26,-3.002 6.586,-2.349 0.864,0.242 2.162,1.077 2.97,2.276 v -0.865 c 0,-0.375 0.417,-0.879 1.012,-0.92 0.45,-0.032 1.037,0.023 1.717,0.171 0.649,0.143 2.045,0.527 2.056,1.291 0.002,0.104 -0.008,0.359 -0.022,0.726 v 0.004 0.002 0.001 c -0.02,0.504 -0.047,1.218 -0.065,2.041 -0.018,0.836 -0.043,1.56 -0.067,2.284 v 0 0 0 0.001 c -0.048,1.422 -0.096,2.843 -0.096,5.115 0,5.877 0.875,7.163 2.413,7.163 1.202,0 2.266,-1.808 2.636,-3.537 -0.343,-1.727 -0.389,-3.777 -0.138,-6.189 0.27,-2.588 1.223,-5.29 2.678,-7.215 1.832,-2.423 4.26,-3.002 6.586,-2.349 0.864,0.242 2.162,1.077 2.97,2.276 0,0 0,-0.675 -0.004,-0.785 -0.015,-0.582 0.576,-1.074 1.558,-1.002 0.778,0.057 1.527,0.221 2.162,0.457 0.717,0.267 1.061,0.478 1.07,1.036 0.001,0.104 -0.008,0.352 -0.022,0.71 h -0.001 c -0.019,0.497 -0.047,1.205 -0.065,2.035 -0.032,1.459 -0.104,5.505 -0.087,10.646 0.001,0.361 0.003,0.724 0.006,1.087 0.756,-0.974 1.342,-1.891 2.108,-3.129 1.429,-2.309 2.814,-5.504 3.379,-7.949 0,0 -1.722,-0.942 -1.443,-2.938 0.176,-1.258 0.639,-1.958 1.32,-2.551 1.141,-0.994 4.716,-1.246 4.331,1.865 -0.073,0.593 -0.162,0.929 -0.162,0.929 1.478,-0.207 3.093,-0.476 4.223,-0.727 1.586,-0.352 2.689,-0.066 3.207,0.494 0.565,0.61 0.79,1.247 0.513,2.462 -0.116,0.511 -0.231,0.993 -0.341,1.457 v 0.002 c -0.506,2.127 -0.919,3.869 -0.992,6.175 -0.135,4.271 1.025,6.74 2.625,6.74 1.102,0 2.109,-0.908 2.651,-3.124 -0.449,-1.965 -0.531,-4.287 -0.279,-6.578 0.346,-3.133 1.223,-5.314 2.678,-7.239 1.832,-2.423 4.259,-3.003 6.586,-2.349 0.864,0.242 2.162,1.077 2.969,2.276 0,0 -0.003,-0.545 -0.003,-0.832 0,-0.535 0.444,-0.923 1.07,-0.957 0.443,-0.024 1.01,0.032 1.663,0.175 0.649,0.142 2.045,0.527 2.056,1.29 0.002,0.106 -0.008,0.364 -0.022,0.734 l -10e-4,0.001 c -0.019,0.505 -0.046,1.217 -0.064,2.04 -0.018,0.836 -0.043,1.561 -0.067,2.285 -0.048,1.422 -0.096,2.843 -0.096,5.115 0,5.877 0.726,7.163 2.263,7.163 1.536,0 2.948,-3.076 3.384,-5.342 -0.001,-0.248 -0.002,-0.482 -0.002,-0.696 0,-4.367 0.098,-10.397 0.12,-11.774 v -0.004 -0.003 -0.015 l 0.001,-0.029 v -0.02 c 0.002,-0.133 0.004,-0.208 0.004,-0.216 0,-0.606 0.192,-1.022 0.98,-1.022 0.638,0 2.141,0.35 2.904,0.559 0.169,0.047 0.731,0.305 0.728,1.08 -0.009,2.055 -0.018,7.47 -0.018,7.47 0,0 0.486,-1.358 1.184,-3.365 0.859,-2.469 1.686,-4.553 2.4,-5.327 0.823,-0.946 3.111,-0.151 3.865,0.299 1.161,0.694 1.384,1.54 1.391,2.535 0.034,4.648 0.283,7.076 0.428,8.481 0.014,0.136 0.027,0.262 0.039,0.38 0.019,0.202 0.131,0.184 0.142,0.098 0.209,-1.667 1.095,-5.772 3.36,-10.942 0.799,-1.824 2.401,-1.274 3.508,-0.894 l 0.012,0.004 c 2.574,0.885 2.839,1.783 2.787,2.69 -0.249,4.418 -0.281,8.858 -0.085,11.271 0.248,3.067 1.215,4.6 2.29,4.6 0.963,0 1.71,-0.699 2.42,-3.794 z m -40.54,2.278 c 0.67,-1.367 1.21,-3.304 1.323,-5.782 0.229,-5.032 -0.744,-7.754 -2.824,-7.952 -2.109,-0.201 -3.383,2.024 -3.839,4.971 -0.448,2.892 -0.419,6.354 0.205,8.427 1.143,3.802 3.837,2.981 5.135,0.336 z m -35.651,8.806 c -0.028,4.124 -0.653,7.741 -1.994,8.791 -1.902,1.489 -4.458,0.372 -3.928,-2.637 0.468,-2.664 2.683,-5.384 5.927,-8.707 0,0 0.007,0.758 -0.005,2.553 z m -1.358,-8.81 c 0.625,-1.282 1.198,-3.551 1.316,-5.81 0.293,-5.604 -0.731,-7.933 -2.808,-7.933 -2.136,0 -3.325,2.556 -3.816,5.31 -0.378,2.124 -0.561,5.493 0.203,8.097 1.118,3.81 3.815,2.983 5.105,0.336 z m -20.676,-5.832 c -0.127,2.392 -0.583,4.391 -1.315,5.843 -1.324,2.629 -3.944,3.462 -5.1,-0.336 -0.833,-2.738 -0.549,-6.473 -0.203,-8.49 0.515,-2.994 1.802,-5.116 3.813,-4.915 2.064,0.207 3.068,2.921 2.805,7.898 z M 96.2479,178.734 c 1.2653,-5.086 5.2711,-9.134 8.9151,-10.569 1.525,-0.6 4.754,0.548 4.777,1.643 0.079,3.787 0.061,9.706 0.051,12.96 -0.002,0.581 -0.003,1.077 -0.004,1.461 0,0.258 0,0.535 -10e-4,0.827 -0.004,2.828 -0.009,7.068 -0.111,9.837 -0.093,2.533 -0.611,4.866 -2.092,6.808 -1.234,1.62 -3.367,2.625 -3.867,2.202 -0.307,-0.259 -0.125,-0.803 0.138,-1.588 0.12,-0.358 0.257,-0.766 0.372,-1.221 0.362,-1.432 0.564,-2.881 0.564,-7.471 0,-1.959 0.036,-8.213 0.066,-13.493 0.022,-3.858 0.041,-7.195 0.041,-7.96 0,-0.045 0,-0.088 0,-0.131 0.001,-0.928 0.001,-1.411 -0.476,-1.035 -2.688,2.116 -4.8228,6.94 -4.334,11.257 0.205,1.809 0.838,2.743 1.273,3.385 0.369,0.545 0.596,0.88 0.301,1.362 -0.547,0.892 -7.2155,-1.833 -5.6131,-8.274 z"
       fill="#262626"
       id="path13" />
  </g>
  <defs
     id="defs32">
    <clipPath
       id="clip0_0_1846">
      <rect
         width="375"
         height="812"
         fill="#ffffff"
         id="rect25"
         x="0"
         y="0" />
    </clipPath>
  </defs>
</svg>
