<?xml version="1.0" encoding="UTF-8" standalone="no"?>
<svg
   width="23.659704"
   height="20.576361"
   viewBox="0 0 23.659704 20.576361"
   fill="none"
   version="1.1"
   id="svg97"
   xmlns="http://www.w3.org/2000/svg"
   xmlns:svg="http://www.w3.org/2000/svg">
  <g
     clip-path="url(#clip0_0_1646)"
     id="g59"
     transform="translate(-13.999981,-628.5037)">
    <g
       clip-path="url(#clip3_0_1646)"
       id="g19"
       style="fill:#e32626;fill-opacity:1;stroke:none;stroke-width:1.00157;stroke-dasharray:none;stroke-opacity:1">
      <path
         fill-rule="evenodd"
         clip-rule="evenodd"
         d="m 25.8725,631.159 -0.655,-0.766 c -2.6361,-2.636 -6.8399,-2.456 -9.4759,0.18 -2.6361,2.636 -2.1288,7.732 0.5073,10.368 1.0698,1.07 2.672,2.551 4.8065,4.444 l 1.7957,1.58 2.017,1.751 c 0.5553,0.479 1.3758,0.486 1.9396,0.017 l 1.6339,-1.37 c 2.8613,-2.418 4.9846,-4.323 6.3699,-5.714 l 0.3595,-0.366 0.3229,-0.342 c 2.455,-2.647 3.0859,-7.793 0.5111,-10.368 l -0.1865,-0.18 c -2.6474,-2.455 -6.6395,-2.574 -9.2143,0 z"
         fill="#262626"
         id="path15"
         style="fill:#e32626;fill-opacity:1;stroke:none;stroke-width:1.00157;stroke-dasharray:none;stroke-opacity:1" />
    </g>
    <mask
       id="mask0_0_1646"
       maskUnits="userSpaceOnUse"
       x="0"
       y="88"
       width="375"
       height="98">
      <rect
         y="88"
         width="375"
         height="98"
         fill="#ffffff"
         id="rect20"
         x="0" />
    </mask>
  </g>
  <defs
     id="defs97">
    <linearGradient
       id="swatch16">
      <stop
         style="stop-color:#e32626;stop-opacity:1;"
         offset="0"
         id="stop16" />
    </linearGradient>
    <clipPath
       id="clip0_0_1646">
      <rect
         width="375"
         height="812"
         fill="#ffffff"
         id="rect90"
         x="0"
         y="0" />
    </clipPath>
    <clipPath
       id="clip3_0_1646">
      <rect
         width="375"
         height="147"
         fill="#ffffff"
         transform="translate(0,615)"
         id="rect93"
         x="0"
         y="0" />
    </clipPath>
  </defs>
</svg>
