<?xml version="1.0" encoding="UTF-8" standalone="no"?>
<svg
   width="20.501001"
   height="23.152"
   viewBox="0 0 20.501001 23.152001"
   fill="none"
   version="1.1"
   id="svg97"
   xmlns="http://www.w3.org/2000/svg"
   xmlns:svg="http://www.w3.org/2000/svg">
  <g
     clip-path="url(#clip0_0_1646)"
     id="g59"
     transform="translate(-338.861,-627.679)">
    <g
       clip-path="url(#clip3_0_1646)"
       id="g19">
      <path
         fill-rule="evenodd"
         clip-rule="evenodd"
         d="m 338.861,628.179 v 21.652 c 0,0.263 0.103,0.515 0.287,0.702 0.388,0.393 1.021,0.398 1.415,0.01 l 8.548,-8.429 8.549,8.429 c 0.187,0.185 0.439,0.288 0.702,0.288 0.552,0 1,-0.448 1,-1 v -21.652 c 0,-0.277 -0.224,-0.5 -0.5,-0.5 h -19.501 c -0.277,0 -0.5,0.223 -0.5,0.5 z"
         fill="#262626"
         id="path16"
         style="fill:#c7c7cc;fill-opacity:1" />
    </g>
    <mask
       id="mask0_0_1646"
       maskUnits="userSpaceOnUse"
       x="0"
       y="88"
       width="375"
       height="98">
      <rect
         y="88"
         width="375"
         height="98"
         fill="#ffffff"
         id="rect20"
         x="0" />
    </mask>
  </g>
  <defs
     id="defs97">
    <clipPath
       id="clip0_0_1646">
      <rect
         width="375"
         height="812"
         fill="#ffffff"
         id="rect90"
         x="0"
         y="0" />
    </clipPath>
    <clipPath
       id="clip3_0_1646">
      <rect
         width="375"
         height="147"
         fill="#ffffff"
         transform="translate(0,615)"
         id="rect93"
         x="0"
         y="0" />
    </clipPath>
  </defs>
</svg>
