<?xml version="1.0" encoding="UTF-8" standalone="no"?>
<svg
   width="23.363747"
   height="23.364197"
   viewBox="0 0 23.363747 23.364197"
   fill="none"
   version="1.1"
   id="svg97"
   xmlns="http://www.w3.org/2000/svg"
   xmlns:svg="http://www.w3.org/2000/svg">
  <g
     clip-path="url(#clip0_0_1646)"
     id="g59"
     transform="translate(-100.25,-743.24999)">
    <mask
       id="mask0_0_1646"
       maskUnits="userSpaceOnUse"
       x="0"
       y="88"
       width="375"
       height="98">
      <rect
         y="88"
         width="375"
         height="98"
         fill="#ffffff"
         id="rect20"
         x="0" />
    </mask>
    <path
       fill-rule="evenodd"
       clip-rule="evenodd"
       d="m 119.75,753 c 0,-5.385 -4.365,-9.75 -9.75,-9.75 -5.385,0 -9.75,4.365 -9.75,9.75 0,5.385 4.365,9.75 9.75,9.75 2.423,0 4.639,-0.884 6.344,-2.346 l 5.99,5.99 0.084,0.073 c 0.293,0.218 0.71,0.194 0.976,-0.073 0.293,-0.293 0.293,-0.767 0,-1.06 l -5.99,-5.99 c 1.462,-1.705 2.346,-3.921 2.346,-6.344 z m -18,0 c 0,-4.556 3.694,-8.25 8.25,-8.25 4.556,0 8.25,3.694 8.25,8.25 0,4.556 -3.694,8.25 -8.25,8.25 -4.556,0 -8.25,-3.694 -8.25,-8.25 z"
       fill="#262626"
       id="path45" />
  </g>
  <defs
     id="defs97">
    <clipPath
       id="clip0_0_1646">
      <rect
         width="375"
         height="812"
         fill="#ffffff"
         id="rect90"
         x="0"
         y="0" />
    </clipPath>
  </defs>
</svg>
