<?xml version="1.0" encoding="UTF-8" standalone="no"?>
<svg
   width="22.72657"
   height="19.753662"
   viewBox="0 0 22.72657 19.753662"
   fill="none"
   version="1.1"
   id="svg97"
   sodipodi:docname="Instagram Main-1.svg"
   xmlns:inkscape="http://www.inkscape.org/namespaces/inkscape"
   xmlns:sodipodi="http://sodipodi.sourceforge.net/DTD/sodipodi-0.dtd"
   xmlns="http://www.w3.org/2000/svg"
   xmlns:svg="http://www.w3.org/2000/svg">
  <sodipodi:namedview
     id="namedview97"
     pagecolor="#ffffff"
     bordercolor="#000000"
     borderopacity="0.25"
     inkscape:showpageshadow="2"
     inkscape:pageopacity="0.0"
     inkscape:pagecheckerboard="0"
     inkscape:deskcolor="#d1d1d1">
    <inkscape:page
       x="0"
       y="0"
       width="22.72657"
       height="19.753662"
       id="page2"
       margin="0"
       bleed="0" />
  </sodipodi:namedview>
  <g
     clip-path="url(#clip0_0_1646)"
     id="g59"
     transform="translate(-94.500001,-628.5)">
    <g
       clip-path="url(#clip3_0_1646)"
       id="g19">
      <path
         fill-rule="evenodd"
         clip-rule="evenodd"
         d="m 117.123,629.629 -10.686,18.253 c -0.336,0.575 -1.199,0.459 -1.371,-0.184 l -2.751,-10.256 -0.022,-0.032 c -0.021,-0.035 -0.038,-0.072 -0.052,-0.109 l -7.5198,-7.521 c -0.4725,-0.472 -0.1379,-1.28 0.5303,-1.28 h 21.2235 c 0.58,0 0.94,0.629 0.648,1.129 z m -2.701,1.643 -10.571,6.104 2.199,8.2 z M 97.0622,630 l 16.5648,-10e-4 -10.502,6.064 z"
         fill="#262626"
         id="path13"
         inkscape:export-filename="..\..\StudioProjects\instagram_clone_app\assets\svgs\share_svg.png"
         inkscape:export-xdpi="96"
         inkscape:export-ydpi="96" />
    </g>
    <mask
       id="mask0_0_1646"
       maskUnits="userSpaceOnUse"
       x="0"
       y="88"
       width="375"
       height="98">
      <rect
         y="88"
         width="375"
         height="98"
         fill="#ffffff"
         id="rect20"
         x="0" />
    </mask>
  </g>
  <defs
     id="defs97">
    <clipPath
       id="clip0_0_1646">
      <rect
         width="375"
         height="812"
         fill="#ffffff"
         id="rect90"
         x="0"
         y="0" />
    </clipPath>
    <clipPath
       id="clip3_0_1646">
      <rect
         width="375"
         height="147"
         fill="#ffffff"
         transform="translate(0,615)"
         id="rect93"
         x="0"
         y="0" />
    </clipPath>
  </defs>
</svg>
