<?xml version="1.0" encoding="UTF-8" standalone="no"?>
<svg
   width="9.8980026"
   height="9.7969971"
   viewBox="0 0 9.8980026 9.7969971"
   fill="none"
   version="1.1"
   id="svg97"
   xmlns="http://www.w3.org/2000/svg"
   xmlns:svg="http://www.w3.org/2000/svg">
  <g
     clip-path="url(#clip0_0_1646)"
     id="g59"
     transform="translate(-108,-202)">
    <g
       clip-path="url(#clip1_0_1646)"
       id="g7">
      <path
         fill-rule="evenodd"
         clip-rule="evenodd"
         d="m 112.949,202 1.232,0.803 1.471,-0.009 0.603,1.342 1.242,0.787 -0.219,1.455 0.62,1.334 -0.97,1.105 -0.2,1.457 -1.414,0.405 -0.956,1.118 -1.409,-0.423 -1.409,0.423 -0.955,-1.118 -1.415,-0.405 -0.199,-1.457 -0.971,-1.105 0.62,-1.334 -0.219,-1.455 1.243,-0.787 0.602,-1.342 1.471,0.009 z m 1.309,3.519 -1.969,2.09 -0.649,-0.689 c -0.151,-0.161 -0.404,-0.168 -0.565,-0.017 -0.161,0.151 -0.169,0.405 -0.017,0.565 l 0.94,0.999 c 0.158,0.167 0.424,0.167 0.582,0 l 2.26,-2.4 c 0.152,-0.161 0.144,-0.414 -0.017,-0.565 -0.16,-0.152 -0.414,-0.144 -0.565,0.017 z"
         fill="#3897f0"
         id="path4" />
    </g>
    <mask
       id="mask0_0_1646"
       maskUnits="userSpaceOnUse"
       x="0"
       y="88"
       width="375"
       height="98">
      <rect
         y="88"
         width="375"
         height="98"
         fill="#ffffff"
         id="rect20"
         x="0" />
    </mask>
  </g>
  <defs
     id="defs97">
    <clipPath
       id="clip0_0_1646">
      <rect
         width="375"
         height="812"
         fill="#ffffff"
         id="rect90"
         x="0"
         y="0" />
    </clipPath>
    <clipPath
       id="clip1_0_1646">
      <rect
         width="375"
         height="54"
         fill="#ffffff"
         transform="translate(0,186)"
         id="rect91"
         x="0"
         y="0" />
    </clipPath>
  </defs>
</svg>
